<?xml version="1.0" encoding="iso-8859-1"?>
<!-- Generator: Adobe Illustrator 19.0.0, SVG Export Plug-In . SVG Version: 6.00 Build 0)  -->
<svg fill="#FFFFFF" version="1.1" id="Capa_1" xmlns="http://www.w3.org/2000/svg" xmlns:xlink="http://www.w3.org/1999/xlink" x="0px" y="0px"
	 viewBox="0 0 512 512" style="enable-background:new 0 0 512 512;" xml:space="preserve">
<g>
	<g>
		<path d="M496.671,87.373H15.329C6.864,87.373,0,94.236,0,102.702v306.595c0,8.466,6.864,15.329,15.329,15.329h0.002
			c0.002,0,0.004,0,0.006,0c0.004,0,0.008,0,0.011,0h481.302c0.004,0,0.008,0,0.011,0c0.001,0,0.002,0,0.004,0h0.004
			c8.466,0,15.329-6.863,15.329-15.329V102.702C512,94.236,505.137,87.373,496.671,87.373z M452.716,118.032l-196.713,156.21
			L59.285,118.032H452.716z M30.659,134.451l147.534,117.153L30.659,376.275V134.451z M57.221,393.968L202.682,271.05l43.789,34.771
			c2.791,2.216,6.162,3.324,9.533,3.324c3.37,0,6.742-1.108,9.533-3.324l43.787-34.771l145.458,122.918H57.221z M481.341,376.274
			l-147.53-124.67l147.53-117.153V376.274z"/>
	</g>
</g>
<g>
</g>
<g>
</g>
<g>
</g>
<g>
</g>
<g>
</g>
<g>
</g>
<g>
</g>
<g>
</g>
<g>
</g>
<g>
</g>
<g>
</g>
<g>
</g>
<g>
</g>
<g>
</g>
<g>
</g>
</svg>
