<?xml version="1.0" encoding="iso-8859-1"?>
<!-- Generator: Adobe Illustrator 19.0.0, SVG Export Plug-In . SVG Version: 6.00 Build 0)  -->
<svg fill="#FFFFFF" version="1.1" id="Capa_1" xmlns="http://www.w3.org/2000/svg" xmlns:xlink="http://www.w3.org/1999/xlink" x="0px" y="0px"
	 viewBox="0 0 512 512" style="enable-background:new 0 0 512 512;" xml:space="preserve">
<g>
	<g>
		<path d="M384.139,308.237l-27.134-27.134c-7.403-7.403-17.635-11.113-28.053-10.176c-10.426,0.935-19.827,6.404-25.794,15.003
			l-9.452,13.621c-12.854-2.29-37.721-8.771-55.103-26.154c-17.389-17.39-23.869-42.268-26.155-55.103l13.624-9.453
			c8.6-5.968,14.069-15.371,15.002-25.797c0.935-10.426-2.775-20.65-10.176-28.05l-27.134-27.134
			c-10.904-10.903-27.339-13.505-40.899-6.479c-23.776,12.318-39.394,35.408-43.982,65.016
			c-7.473,48.239,14.828,105.149,58.199,148.52c37.826,37.826,85.947,59.624,129.634,59.624c6.406,0,12.718-0.469,18.885-1.424
			c29.61-4.586,52.7-20.206,65.017-43.981c0,0,0,0,0.001,0C397.644,335.574,395.041,319.139,384.139,308.237z M363.01,334.832
			c-9.789,18.894-28.334,25.414-42.168,27.557c-38.035,5.89-85.835-13.521-121.774-49.459
			c-35.937-35.938-55.351-83.736-49.459-121.773c2.142-13.834,8.664-32.378,27.558-42.168c0.512-0.264,1.078-0.393,1.652-0.393
			c1.056,0,2.14,0.435,2.956,1.25l27.135,27.135c1.127,1.129,1.271,2.411,1.192,3.288c-0.079,0.878-0.447,2.114-1.759,3.024
			l-21.433,14.872c-4.482,3.11-7.007,8.344-6.65,13.788c0.135,2.056,3.671,50.744,36.355,83.428
			c32.684,32.685,81.372,36.223,83.428,36.356c5.44,0.35,10.679-2.168,13.789-6.651l14.872-21.433
			c0.909-1.31,2.146-1.679,3.023-1.758c0.879-0.081,2.16,0.065,3.29,1.193l27.134,27.133
			C363.412,331.481,363.764,333.377,363.01,334.832z"/>
	</g>
</g>
<g>
	<g>
		<path d="M437.016,74.984C388.662,26.629,324.374,0,255.99,0S123.318,26.629,74.964,74.983
			C33.867,116.08,7.777,170.471,1.497,228.137c-5.937,54.515,5.911,110.004,33.399,157.041L8.218,484.74
			c-1.438,5.365,0.096,11.09,4.025,15.018c3.927,3.927,9.654,5.461,15.016,4.024l99.562-26.677
			C165.925,499.957,210.874,512,256.245,512c9.203,0,18.424-0.495,27.617-1.497c57.666-6.279,112.058-32.37,153.154-73.468
			C485.371,388.682,512,324.392,512,256.01S485.37,123.338,437.016,74.984z M415.029,415.048
			c-74.331,74.331-188.5,87.539-277.637,32.124c-2.488-1.545-5.335-2.343-8.21-2.343c-1.346,0-2.698,0.175-4.023,0.53
			l-79.937,21.419l21.42-79.936c1.112-4.153,0.455-8.582-1.814-12.232C9.411,285.469,22.621,171.3,96.95,96.97
			c87.696-87.694,230.384-87.694,318.079,0C502.723,184.664,502.723,327.354,415.029,415.048z"/>
	</g>
</g>
<g>
</g>
<g>
</g>
<g>
</g>
<g>
</g>
<g>
</g>
<g>
</g>
<g>
</g>
<g>
</g>
<g>
</g>
<g>
</g>
<g>
</g>
<g>
</g>
<g>
</g>
<g>
</g>
<g>
</g>
</svg>
