<svg xmlns="http://www.w3.org/2000/svg" viewBox="0 0 543.32 541.65"><defs><style>.cls-1{fill:#ffffff;}</style></defs><g id="Layer_2" data-name="Layer 2"><g id="Layer_1-2" data-name="Layer 1"><path class="cls-1" d="M235,23.55l-12.64-4.18a1.48,1.48,0,0,1-.94-1.88,1.52,1.52,0,0,1,.52-.73c8.15-6,35.65-23.37,69.91-14.09C322.65,11,337.67,35.14,342.3,44a4.21,4.21,0,0,1-1,5.14,21.16,21.16,0,0,1-3.1,2.23,20.57,20.57,0,0,1-4.56,2.06A4.14,4.14,0,0,1,329,51.89c-5.67-7.76-16.38-31-49-36-19.77-3.14-35.56,3.86-42.19,7.39a3.46,3.46,0,0,1-2.78.23M157.26,40.76a2.06,2.06,0,0,1-2.09-2,2.18,2.18,0,0,1,.34-1.16c4.44-6.66,17.25-21.06,44.17-19.37,32.77,2.05,51.68,14,70.45,29.94a4.63,4.63,0,0,1,.52,6.52l-.11.12-7.24,7.91a3.25,3.25,0,0,1-4.6.26l-.14-.13c-11.24-11.31-57.14-49.12-89.29-23a3.41,3.41,0,0,1-2.07.77Zm148-9.11C301.55,33.14,282.1,42,256.72,78.82c0,0-8.17,10-13.35,4.78s-30.87-25-32.86-25.34-8.76,12-6.37,14.78,32.05,19.31,33.64,32.1-6.6,14.68.17,20,10.31,11,14.1,7.8,8.13-50.27,63.69-89.38a1.73,1.73,0,0,0,.59-2.12,18.83,18.83,0,0,0-9.82-9.79,1.76,1.76,0,0,0-1.24,0m30.66-2.44-5.75-7.95a1.93,1.93,0,0,1,.44-2.69,2,2,0,0,1,.67-.31c9.76-2.28,42.78-7.44,57,22.93,0,0,10.79,25.81,12.38,43.61a3.14,3.14,0,0,1-2.87,3.39,1.22,1.22,0,0,1-.27,0H388.4a3.14,3.14,0,0,1-3.14-2.86c-1.19-12.57-8.3-61.93-46.35-54.93a3,3,0,0,1-3-1.19m58.57,17.07L398.36,57A5.08,5.08,0,0,0,402,60.14c5.52,1.28,18.14,6.54,22.57,28,4.51,21.84,3.71,37.06,3.16,42.59a2.41,2.41,0,0,0,2.07,2.63l11.88,1.78a3,3,0,0,0,3.54-2.33,3.47,3.47,0,0,0,.06-.45c1-16,2.18-83-48.42-89a2.23,2.23,0,0,0-2.5,1.92,2.19,2.19,0,0,0,.12,1.08M423,96.41l.56,10.72a2,2,0,0,1-1.85,2.15,1.89,1.89,0,0,1-.47,0c-8.37-1.21-36.89-4.09-66.33,7.28,0,0-19.91,7.85-35.61,21.4a1.41,1.41,0,0,1-2-.15,1.47,1.47,0,0,1-.27-.49c-1-3.08-2.66-9.08-2.49-13.81a3.1,3.1,0,0,1,1.52-2.55c6.7-3.91,35.81-22.48,28.16-46.5a2.12,2.12,0,0,1,1-2.48l7.38-4a2.12,2.12,0,0,1,2.6.46c1.79,2,5.11,6.51,6.89,14.28,2.52,11,7.21,10.45,10.09,10.45,2.65,0,27.7-1.52,46-1.4A4.91,4.91,0,0,1,423,96.41m-160.19,400a1.33,1.33,0,0,1,0,1.88,2,2,0,0,1-.74.51c-4.49,1.62-9,3.15-13.55,4.69a3.77,3.77,0,0,1-1,.14,2.68,2.68,0,0,1-1.22-.16c-2-.7-4.31-1.45-6.56-2.41a121.63,121.63,0,0,1-30-18.15c-3.77-3.12-3.73-3.19.64-5.13,3.3-1.47,6.58-3,9.76-4.7,1.85-1,3.27-1.16,5,.34a99.43,99.43,0,0,0,18.22,12.93c6.09,3.34,12.42,6.22,18.62,9.36a3.53,3.53,0,0,1,.88.7m2.05-71.65a24.87,24.87,0,0,1,2.15,4,9.55,9.55,0,0,1-.81,2.08,52.35,52.35,0,0,1-3.94,5.3c-1.59,1.77-3.28,1.67-4.64-.3-3.28-4.72-6.42-9.54-9.6-14.32a3.37,3.37,0,0,1,.18-4.19,40.7,40.7,0,0,1,3.25-3.94c1.14-1.15,2.51-1.35,3.72,0,3.24,3.78,6.54,7.52,9.69,11.38m61.18,29.67a2.56,2.56,0,0,1,1.33,3.36,2.68,2.68,0,0,1-.41.64c-2.16,2.71-4.41,5.36-6.69,8-1.73,2-3.76,2.28-6.11,1-5.08-2.85-9.71-6.2-12.91-11.18a4.1,4.1,0,0,1,.36-5.49c1.93-2.08,3.77-4.27,5.83-6.21a3.94,3.94,0,0,1,1.41-.76,4.17,4.17,0,0,1,3.71.46,6.45,6.45,0,0,1,.63.52,45.61,45.61,0,0,0,12.85,9.69M255,316.28a7.41,7.41,0,0,0-2-2.42c-.36-.27-1.2.08-1.82.16,0,0,0,.15-.1.18-2,1.47-2.25,3.08-1.34,5.53a98.83,98.83,0,0,1,4.67,15.57c1,5,.87,10.26,1.21,15.41.07,1.07-.07,2.15-.07,3.23a6,6,0,0,0,.13,1.27V317.69c-.22-.48-.45-.94-.67-1.41m0,0a7.41,7.41,0,0,0-2-2.42c-.36-.27-1.2.08-1.82.16,0,0,0,.15-.1.18-2,1.47-2.25,3.08-1.34,5.53a98.83,98.83,0,0,1,4.67,15.57c1,5,.87,10.26,1.21,15.41.07,1.07-.07,2.15-.07,3.23a6,6,0,0,0,.13,1.27V317.69c-.22-.48-.45-.94-.67-1.41m92.79-116.7c.47-.51,1.2-1.29,1.84-1.94.67,2.48,1,1.83,2.6,1.39a46.59,46.59,0,0,0,16.91-8.39c2-1.62,8.13-6.93,8-9.57,0-.25.78-.52,1.43-.81a.22.22,0,0,1,.29.12.15.15,0,0,1,0,.09c-.32,6.76-20.14,19.77-30.44,20.42a.77.77,0,0,1-.83-.72.84.84,0,0,1,.21-.59M373,201.19c-4.82,2.72-9.56,5.67-14.62,7.88-7.83,3.43-14.07,8.69-19.51,15.1-2.61,3.07-5.69,5.88-7.68,9.31a47,47,0,0,0-4.3,11.51c-.8,3.06-.73,6.35-1.05,9.61h2.9l.31.64c-1.12.67-2.21,1.39-3.37,2-.19.09-.9-.44-1-.8a6.75,6.75,0,0,1-.56-2.91c.74-5.57,1.32-11.06,3.62-16.43a56,56,0,0,1,18.51-23,60.32,60.32,0,0,1,7.9-4.48c7.47-4,15.57-6.79,22.37-12a8,8,0,0,1,1.22-.58c.14.22.29.43.43.64-1.71,1.2-3.34,2.55-5.15,3.58M346.3,220.53c-3,3.64-6.44,7.06-9,11-3.07,4.69-4.43,10.14-4.74,16.28l3-2.2c.11.23.26.41.21.47-.88,1.28-1.23,3.65-3.19,3.18s-1.29-2.8-1.23-4.31c.2-5.75,1.7-11.14,5.53-15.6,3.44-4,7-7.92,10.5-11.87l.87.72c-.65.77-1.31,1.53-2,2.31m-24.7,40.63-.8.25c-.41-.59-1.16-1.19-1.16-1.79A62.75,62.75,0,0,1,320,249a66.15,66.15,0,0,1,9.06-23.33c1.19-1.94,3-3.5,4.49-5.23l.57.39c-4.22,5.93-8.4,11.79-10.61,18.89s-3.29,14.08-2,21.45m-7.13-38c-3.3-10.67-.52-20.06,5.59-28.94a35.16,35.16,0,0,1,11.58-10.79,3.07,3.07,0,0,1,1.81-.36c-2.59,2.13-5.21,4.24-7.77,6.41-4.49,3.81-7.06,8.94-9.07,14.26a26.18,26.18,0,0,0-1.19,8.24,45.34,45.34,0,0,0,.52,8.79c.19,1.21,1.39,2.29,2.24,3.35a6.36,6.36,0,0,0,1.53,1.11c-2.4,1.38-4.49.35-5.24-2.07M319,300.58c1,2.83.43,6-.94,9.19-.36.84-.6,1.74-1,2.56a6.49,6.49,0,0,1-1.54,2.47,2.55,2.55,0,0,1-2.17-.41c-1.29-6.94-7.36-10.43-11.14-15.54-.55-.75-1.19-1.43-1.77-2.16a8.25,8.25,0,0,1-.11-1c5.35,5.8,12.72,9.22,14.12,17.7l.59-.14,4-12.66m36-107.07c-.16.94,2-.47,3-.86,1.44-.58,2.83-1.28,4.23-1.93-1.94,2.25-7.2,5.09-9.44,5.06-.13-2.14,2.39-3.29,2.22-2.27M367.49,142c-2.56,4.8-3.75,10.34-7.7,14.37a23.43,23.43,0,0,1-4.69,4.26c-5.6,3.21-11.15,6.75-17.68,7.74-3.81.58-7.4,1.35-10.43,3.89a1.08,1.08,0,0,1-1.1,0,1.68,1.68,0,0,1-.37-1.35c.55-1.43,1.24-2.81,1.88-4.2l.34.23c-.13,1-.26,1.94-.44,3.36a19.84,19.84,0,0,1,3.11-1.51c3.49-.93,7-1.62,10.53-2.61,9.16-2.62,16.62-7.65,21.44-16,2-3.5,3.55-7.29,5.38-10.91a23.78,23.78,0,0,1,1.88-2.78l.46.24c-.86,1.78-1.68,3.59-2.61,5.33m-50.62,38c-3,3.57-6.3,6.91-9.56,10.26a11,11,0,0,1-2.76,1.58,21.5,21.5,0,0,1-.49-3.2,32.24,32.24,0,0,1,.43-3.91l.78.16a3.86,3.86,0,0,0,.08.84c.26,1,.56,1.9.84,2.86a9.73,9.73,0,0,0,2.66-1.51c5.83-6.5,11.75-13,14.58-21.49a1,1,0,0,1,.4-.51c-1.28,5.45-3.31,10.6-7,14.92m-13.39-22.92.66-.24c.87,2.44,1.68,4.9,2.63,7.3a12.16,12.16,0,0,0,1.56,2.31c.71-.66,1.67-1.21,2.08-2,1.72-3.48,2.94-7,2.17-11.1a75.22,75.22,0,0,1-1-12c.53,2.43,1,4.85,1.58,7.27.32,1.46.77,2.9,1,4.36.9,5.14-1.61,9.44-3.6,13.8-.91,2-2.77,1.86-3.65-.19-1.33-3.11-2.33-6.36-3.47-9.54m9.24,20c-.86,1.3-1.46,2.79-2.42,4-.51.67-1.7,1.45-2.28,1.26a4,4,0,0,1-1.94-2.18,6.06,6.06,0,0,1-.07-2.4l.48-.07c.39.89.77,1.78,1.24,2.84,6.86-5.23,8.87-12.53,9.25-20.62.91,6.42-.84,12-4.26,17.17m17.35-13c.77-1.16,1.69-2.21,2.56-3.31l.7.45c-.22.75-.45,1.49-.73,2.44,6.8-1.79,13.4-3.73,19.5-8.37-1.46,3.08-2.88,4.1-7.36,5.66s-8.71,3-13.07,4.54a1.66,1.66,0,0,1-1.38-.06,1.42,1.42,0,0,1-.22-1.35m-31.6,72.83c-1,2.32-1,5.13-1.36,7.73-.17,1.42,0,2.88-.13,4.3s-1,1.86-2,.79a10.48,10.48,0,0,1-2-3.15c-1.65-3.86-3.3-7.72-4.72-11.66-2-5.5-3.33-11.12-2.21-17,.41-2.17,1-4.28,1.57-6.43H288a15.87,15.87,0,0,1-.5,4.07c-1.71,4.33-1.24,8.68.05,12.85,1.78,5.71,4,11.28,6.13,16.89a4.36,4.36,0,0,0,2,2,16.24,16.24,0,0,0,.52-3.18,28.73,28.73,0,0,1,2.2-12.14c.71-1.76.43-3.93.56-5.92a11,11,0,0,1,.31-2.67,18.32,18.32,0,0,1,.68,3,22.28,22.28,0,0,1-1.55,10.47m-6.64-27.55.69.09c-1.62,7.81-2,15.56,1,23.76l2.44-4.85.39.13c-.46,2-.89,4-1.41,6a5,5,0,0,1-.48,1,.6.6,0,0,1-.82.26.65.65,0,0,1-.26-.26,11.6,11.6,0,0,1-1-2.14c-.91-4.39-2.14-8.79-2.3-13.23-.13-3.57,1.13-7.18,1.76-10.79m-11.68-36.52c-2.6-6.78-2.57-12.78,1.32-18.4-.73,2.2-1.49,4.4-2.17,6.62-.9,2.91.11,5.62,1.16,8.26.19.49,1.06.73,1.93,1.29Zm.06,16.64c-.68,1.48-1.72,2.82-2.3,4.32a47.51,47.51,0,0,0-1.3,5.39c-.85-1.12-1.88-1.9-2.1-2.87-1.41-6.11-2.73-12.26-3.89-18.43-.61-3.23-.81-6.53-1.22-9.8a12.53,12.53,0,0,1,1.86-8c-.2,3.07-.74,6.39-.53,9.64.22,3.41,1.21,6.76,1.76,10.14.7,4.24,1.27,8.49,2,12.73a11.48,11.48,0,0,0,.89,2.21l.8.15,5.28-10.21c.52,1.56-.46,3.17-1.21,4.77m-2.49,19.27a32.41,32.41,0,0,1-1.83,2.9,8.84,8.84,0,0,1-1.24,1.28c-.48-.49-1.17-.89-1.39-1.47-1.61-4.18-3.13-8.4-4.66-12.62-2.84-7.86-2.8-16-2.48-24.2a10,10,0,0,1,.51-2.28v7.41c.07,8.6,1.32,16.95,5.38,24.7.49.93.66,2,1.13,3,.33.64.87,1.5,1.43,1.6a2.25,2.25,0,0,0,1.91-1,26.33,26.33,0,0,0,1.81-4.74,40,40,0,0,0,.76-4.24,11.69,11.69,0,0,1-1.33,9.64M283.44,296c0,.11-.15.22-.46.68a7.93,7.93,0,0,1-1.64-1.73,12.77,12.77,0,0,0-6.31-6.28c-3.57-1.69-5.6-5.27-7-8.92a32.5,32.5,0,0,1-1.38-19.45c1.07-4.28,2-8.74,4-12.62,2.53-5,2.16-9.47-.69-13.77-3.62-5.49-5.85-11.91-10.88-16.48-.15-.15-.14-.48.23-1,2.3,2.84,4.75,5.55,6.85,8.53s4.1,6.32,6,9.58c2.23,3.88,1.92,7.94.54,12-2.72,8-5.36,16-4.82,24.7.44,7,4,11.86,9.37,15.77a1.83,1.83,0,0,0,1.85-.08,2,2,0,0,0,.08-1.84,25.2,25.2,0,0,0-1.58-2.29,14.11,14.11,0,0,1-1.74-3.39,42.62,42.62,0,0,1-.95-8.43c0-.12,1.95,6.72,3.42,9.08a3.6,3.6,0,0,0,.6.88c4.68,4.06,4.41,9.6,4.51,15m6.53,18.2a61.17,61.17,0,0,1,2.89,8.93c1.66,7,5.43,12.83,9.51,18.51a100,100,0,0,0,6.81,7.95,11.14,11.14,0,0,1,3.06,7.49,12.35,12.35,0,0,1-.12,1.93c-1.38,9.94.07,19.29,6.39,27.46a16,16,0,0,0,1.9,1.78l.56-.31-1.47-6.61.59-.17a21.21,21.21,0,0,0,1.12,3.52c1.4,2.71,3,5.32,4.44,8a14.11,14.11,0,0,1,.71,1.83c-.69-.1-1.57,0-2.05-.36-3.52-2.74-7.14-5.24-9.33-9.48a58.53,58.53,0,0,1-4.69-10.47c-1.3-4.48-2.2-9-1.39-13.58a15.42,15.42,0,0,0,.22-3.53,16.41,16.41,0,0,0-4.18-9.55c-3.76-4.52-7-9.5-11.59-13.36-1.67-1.4-2.36-4-3.43-6.07s-1.92-4.12-2.86-6.2c-1.62-3.56-5-3.92-8.24-4.45-1.4-.23-2.87,0-4.3-.1-3.5-.28-5.55-2.64-7.35-5.31-.1-.14,0-.61,0-.61a60.09,60.09,0,0,0,5.22,3.77,8.42,8.42,0,0,0,3.54.6c3.07.2,6.13.34,9.19.47a11.33,11.33,0,0,0,1.93-.25,6.51,6.51,0,0,0-.38-2.13,40.08,40.08,0,0,0-2.58-3.65c-1.58-2.12-3.75-3.38-6.31-3-4.78.69-8.85-1.46-13-3-2.62-.95-3.57-3.73-4.54-6.23-.78-2-1.63-4.09-2.43-6.14-.71-1.81-1.39-3.62-2.09-5.43-.23-.59-.45-1.18-.69-1.77-.32-.79-.73-1.56-1.12-2.34a.43.43,0,0,0-.44-.25,1.14,1.14,0,0,0-1,1.15c0,.33.06.67.06,1,0,1.85.32,3.7.38,5.56.19,5.08.23,10.16.49,15.24a19.08,19.08,0,0,0,1,6.23c.42,1,.86,2.08,1.31,3.11,2,4.53,4.09,9,5.93,13.56a8.94,8.94,0,0,1,.42,5.43,20,20,0,0,0,.76,13.85A17.12,17.12,0,0,0,269.5,355a11.84,11.84,0,0,1,2.45,2,10.46,10.46,0,0,1,2.05,3.17c-1.87-1.17-3.66-2.14-5.31-3.17a25.47,25.47,0,0,1-2.84-2c-6.29-5.37-8.31-12.41-6.31-20.29a16.62,16.62,0,0,0-1-10.43c-.84-2.25-1.82-4.46-2.85-6.63v37.52a3.13,3.13,0,0,0,1.17,1.87,5.59,5.59,0,0,0,1.3.74,20.16,20.16,0,0,1,11,11.34c1.63,4,3.3,7.89,5.06,11.79,1.07,2.38,2.91,3.91,5.16,5.4a51.35,51.35,0,0,1,8.79,7.93c1.72,1.83,2.91,4.16,4.65,6.73a13.81,13.81,0,0,1-2.77-2.24c-3.52-5.09-9-6.87-14.4-9a83.63,83.63,0,0,1-7.87-3.34c-4-2-6.19-5.83-8.67-9.3-2.12-2.94-3.94-6.1-6-9.09a36.76,36.76,0,0,0-3.69-4.67c-2.93-3-3.65-6.42-2.64-10.45a31,31,0,0,0,.57-5.93,19.74,19.74,0,0,0-.22-2.76l.58-.14a12.73,12.73,0,0,1,.71,2.76c.07,2.44-.11,4.88,0,7.32a12.33,12.33,0,0,0,4,8.74c1,1,1.85,2.17,2.85,3.17,1.77,1.77,2.54,4,3.44,6.27,2.47,6.32,6.17,11.68,13.2,13.76a32.81,32.81,0,0,1,3.81,1.75c-1.1-2.13-2.09-3.93-3-5.78-1.76-3.75-3.24-7.63-5.24-11.23-2.2-4-4.75-7.67-9.57-9.12-3.18-1-5.35-5.49-5-9.37a69,69,0,0,0-1.46-21.11c-1.65-7.84-5.68-14.18-9.94-20.6-3.1-4.68-6-9.48-8.93-14.28a14.38,14.38,0,0,1-1-3.35l.55-.25c1.13,1.84,2.24,3.7,3.39,5.52a5.31,5.31,0,0,0,1.43,1.82c3.37,1.95,4.66,5.4,6.45,8.54a22.87,22.87,0,0,0,3.26,4.19c1.27,1.35,2.35.56,3.07-.71a5.39,5.39,0,0,0,.67-2.26,90.51,90.51,0,0,0-.12-16.46c-.75-6.56-.08-13.33.46-20,.31-3.91.52-7.69-.52-11.49a5.74,5.74,0,0,1-.16-3.36c1.7-4.25.36-8.09-2-11.32s-4.54-6.7-6.76-10.07a28.19,28.19,0,0,0-6.47-6.38A51.65,51.65,0,0,1,220.72,215c-1-1.84-1.39-4-2.15-6-.69-1.8-1.5-3.54-2.26-5.31a19.25,19.25,0,0,1,6.16,10.48c1.24,5.65,4.72,9.45,9.18,12.6,3.37,2.37,7,4.42,10.25,6.91,4.11,3.11,6.87,7.37,9.15,11.95.92,1.84,1.85,3.69,2.59,5.61,1.05,2.71.62,5.44.15,8.25a17.12,17.12,0,0,0,.28,6.91,19.22,19.22,0,0,1,.55,8.69,6.06,6.06,0,0,0,.41,2.7c.21.71.43,1.43.66,2.14.59,1.86,1.21,3.71,1.9,5.55a51.18,51.18,0,0,0,2.35,5.23c1.32,2.6,2.72,5.16,4.11,7.73a10,10,0,0,0,9.39,4.63c-.55-1-1.05-1.75-1.48-2.55-2.54-4.86-5.52-9.55-7.48-14.62a77.76,77.76,0,0,1-4.71-17.12,40,40,0,0,1,2.15-19.49,14.11,14.11,0,0,0,.44-8.45,92,92,0,0,0-6.67-19c-.59-1.18-1.21-2.34-1.88-3.5-.1-.15-.05-.4-.12-1.28.82,1.18,1.31,1.83,1.75,2.54l.25.42c.37.61.9,1.65,1.2,2.31,2.09,4.7,4.3,9.34,6.14,14.13a21.1,21.1,0,0,1,.23,13.92c-2.28,7.74-2.87,15.62-.69,23.53,1.21,4.41,2.2,8.9,3.77,13.18a42.47,42.47,0,0,0,9.5,14.84,3.45,3.45,0,0,0,1.64,1c6.47,1.28,10.07,5.75,12.45,11.39m6.69,42.88c-.67-1.39-1.41-2.77-2.07-4.17a15.17,15.17,0,0,0-7.95-8.11,8.86,8.86,0,0,0-3.34-.6c-6.62,0-10.7-4-14.16-9a19.43,19.43,0,0,1-2.91-7.18,24.39,24.39,0,0,0-4.1-8.6c-2.58-3.66-3.49-7.77-4.45-11.93a6.09,6.09,0,0,1,0-3c.51,2,1,4,1.52,6,1.09,4.65,4.23,8.14,6.59,12.1a29.21,29.21,0,0,1,3.25,8.51,10.38,10.38,0,0,0,3.51,5.63c3.61,3.17,7.92,4.39,12.61,4.61,2.63.12,5.35-.08,7.51,1.88.59.53,1.34,1,1.6,1.7q2.34,6,4.6,12c.77,2,1.52,4.1,2.26,6.15a7.09,7.09,0,0,1,.29,4c-1.32,4.76,1,8.25,3.57,11.79,1.32,1.84,2.47,3.8,3.7,5.71-.19.14-.4.26-.6.4a49.84,49.84,0,0,0-3.9-4.7c-2.52-2.38-5.17-4.58-8.73-5.45a11.32,11.32,0,0,1-7.18-5.7c-1.12-1.95-2.33-3.86-3.5-5.79l.68-.43a7.15,7.15,0,0,0,1.17,2c2.62,2.25,5.24,4.52,8.05,6.52,1.39,1,2.42.1,3.14-1.41,2.35-4.92.85-9.08-1.14-13.15m40.3,77.16c3.24,1.68,4.12,4.94,1.88,9.27-2.32,4.48-5.11,8.72-7.75,13a70.81,70.81,0,0,1-20.28,21.16c-1.58,1.09-1.76,2.49-.08,3.39a120.5,120.5,0,0,0,12,5.53c1.92.76,3.66-.39,5.29-1.6a130.72,130.72,0,0,0,29.52-31.13c1.21-1.75,2.56-3.44,3.59-5.29s2.59-2.15,4.52-1.61c4,1.11,8,2.39,12,3.14a67.81,67.81,0,0,0,19.08.7,99.23,99.23,0,0,0,42.21-13.64c5.57-3.43,11.14-6.87,16.63-10.42,1.73-1.12,3.16-2.69,4.81-3.94h0a1.3,1.3,0,0,1,1.79.36,1.27,1.27,0,0,1,.14,1.15,15.88,15.88,0,0,1-3.75,5.43,105.58,105.58,0,0,1-20.69,16.82C429,452,420,457,410,459.89c-7.87,2.3-15.74,4.79-24.09,5-5.31.16-10.6,1-15.9,1a130.81,130.81,0,0,1-14.8-1.05,5.4,5.4,0,0,0-5.15,1.87c-2.35,2.78-4.69,5.54-7,8.35-1.65,2-1,3.51,1.56,3.95,12.62,2.16,25.33,1.68,38,1.11,2.63-.12,5.24-.8,7.87-1.06.71-.08,1.9.2,2.12.67a2.29,2.29,0,0,1-.56,2.18,33,33,0,0,1-5.86,3.86c-4.3,2-8.61,4.24-13.14,5.57a72.23,72.23,0,0,1-32.57,2.15C333,492.26,325.66,491,318.7,488a198.11,198.11,0,0,1-18.59-8.47c-5.07-2.78-9.67-6.44-14.35-9.89-1.78-1.3-3.12-1.66-4.86,0-2.44,2.34-5.06,4.51-7.86,7,20.12,18.13,44,26,69.8,30a1.16,1.16,0,0,1,1,1.33,1.14,1.14,0,0,1-.9.95h0c-4.26.87-8.51,2.05-12.83,2.36a81.41,81.41,0,0,1-30.38-3.6,17.52,17.52,0,0,0-5-1.17,20.89,20.89,0,0,0-5.29,1.24c-2.59.77-5.18,1.56-7.73,2.48a3,3,0,0,0-1,.73,1.16,1.16,0,0,0,0,1.64,2,2,0,0,0,.76.52,102.08,102.08,0,0,0,24.83,4.8c1.42.11,2.82.3,4.57.51a.5.5,0,0,1,.43.55.47.47,0,0,1-.16.3,5.41,5.41,0,0,1-1.46,1,67.77,67.77,0,0,1-18.15,5.05,179.91,179.91,0,0,1-34.26.57c-5.65-.43-11.33-.8-16.9-1.76-3.82-.65-7.49-2.2-11.18-3.49a1,1,0,0,1-.33-.23,1.39,1.39,0,0,1,0-2,1.49,1.49,0,0,1,.76-.38h.16c7.54-1,15.13-1.65,22.61-2.92a206.27,206.27,0,0,0,22-4.8c6.15-1.75,12.11-4,18.16-6.05a63,63,0,0,0,5.9-2.28c.94-.41,1.89-.85,2.82-1.31a9.17,9.17,0,0,0,2.48-1.48,10.42,10.42,0,0,0-1.75-1l-1.76-.95-3.35-1.81q-3.24-1.74-6.46-3.53c-1.57-.86-3-.36-4.52.22-7.45,2.89-14.8,6.06-22.39,8.52-10.32,3.35-20.74,6.46-31.26,9.09a66.8,66.8,0,0,1-25,1.13,76.93,76.93,0,0,1-9.82-2.09.92.92,0,0,1-.23-.09,1.32,1.32,0,0,1,.61-2.44,58.67,58.67,0,0,0,7-.72c7.37-1.41,14.69-3,22-4.61a1.24,1.24,0,0,0,1.18-1.31,1.26,1.26,0,0,0-.74-1.08c-3.62-2.52-7.27-5-11-7.41a3.13,3.13,0,0,0-2.23-.26,102.89,102.89,0,0,1-34.11,3,89.27,89.27,0,0,1-9.73-1.73c-1-.19-11.88-3-16.81-6.65a40,40,0,0,1-5.19-3.69,2.13,2.13,0,0,1-.42-2,2.23,2.23,0,0,1,1.91-.68c13.05,2.35,26.22,1.68,39.31,1a55.94,55.94,0,0,0,25-7c4.66-2.63,9.75-4.46,14.4-7.08a28.78,28.78,0,0,0,10.62-9.7c1.21-2,1.34-3.89-.33-5.7-1.88-2-3.69-4.14-5.66-6.09a4,4,0,0,0-5.65-.09,3.83,3.83,0,0,0-.28.29c-5.87,6.57-13.57,10.24-21.34,13.85-1.28.6-8.78,3.48-9.58,3.73-13.34,4.24-26.94,4.52-40.67,2.63-5.59-.77-11.19-1.61-16.69-2.87a79.66,79.66,0,0,1-11.11-3.83c-6.11-2.39-12.26-4.73-18.2-7.48-9.56-4.43-17.93-10.83-26.45-17a39.09,39.09,0,0,1-4.35-3.67c-5.6-5.78-11.26-11.51-16.76-17.36-1.09-1.14-1.55-2.87-2.29-4.32.28-.23.55-.46.84-.68,2.39,2,4.8,3.9,7.17,5.87,3,2.51,6,5,9,7.58,1.13,1,19.94,13.21,25.11,16.37a96.4,96.4,0,0,0,35.3,12.54c11,1.77,22.16,2,33-2,1.3-.4,2.62-.73,3.95-1,4.71-1.14,3.72-.54,6.36,2.92,1.94,2.53,3.7,5.17,5.43,7.84a4.21,4.21,0,0,0,4.16,1.9,37.15,37.15,0,0,0,16.63-5.16c1.6-.89,1.59-1.67.61-3-1.92-2.64-3.81-5.3-5.52-8.08a10.63,10.63,0,0,1-1.22-3.86,5.34,5.34,0,0,1,3.22-5.73c4.68-2.39,9.37-4.76,14-7.23,3.81-2,4.56-2.06,7.1,1.45,2.42,3.35,4.15,7.24,6.84,10.32,5.15,5.9,10.74,11.44,16.22,17.05,2.37,2.43,4.93,4.67,7.42,7a2.71,2.71,0,0,0,3.82.37,2.53,2.53,0,0,0,.36-.37c2.36-2.27,4.73-4.52,7-6.87,1.13-1.16.94-3.57-.37-4.89A102.13,102.13,0,0,1,250.9,431c-3.56-6-6.35-12.39-9.3-18.71a4.38,4.38,0,0,1,.43-3.55,45.6,45.6,0,0,1,4.92-6.17c2.33-2.5,3.87-2.23,5.72.63,3,4.6,5.64,9.47,9.11,13.68,5.33,6.44,11.15,12.5,16.93,18.54,2.16,2.25,2.8,2.08,4.52-.4,2.92-4.18,5.56-8.57,8.55-12.7,1.48-2.05.56-3.35-.58-4.93-4-5.54-7.93-11.11-11.87-16.71a3.19,3.19,0,0,1-.75-1.92c.13-.94.47-2.27,1.14-2.61a2.83,2.83,0,0,1,2.61.84c2.26,3.29,4.29,6.72,6.36,10.13s2.43,3.34,5.2.9c.79-.71,2.34-1.73,2.75-1.45a5.6,5.6,0,0,1,1.93,3.08c.85,3.15-.84,5.84-2,8.56a101.15,101.15,0,0,1-16.63,25.93c-7.31,8.36-15.3,16.13-23.3,23.85-3.51,3.37-7.7,6.06-11.72,8.85-1.48,1-3.38,1.47-5,2.26-.54.25-1.21.73-1.32,1.21s.58,1,1,1.34c3.74,2.38,7.6,4.55,12.05,5.24a5,5,0,0,0,3.42-.65c9.5-7,19.34-13.66,28.2-21.42,8.64-7.56,16.4-16.15,24.2-24.61,2.91-3.15,4.77-7.24,7.28-10.79,2.95-4.21,2.86-5.13,8.35-2.29,4.6,2.39,9.21,4.75,13.82,7.14M225,392.76c1.57,4.62,5,7,9.18,8.57,2.1.8,4.21,1.55,6.8,2.51-.81-3.91-1.52-7.31-2.23-10.7l.48-.08,4,12.48c-4.15-2.7-8.69-1.11-13-2.34a8.23,8.23,0,0,1-6-5.73c-1-3.24-1.59-6.68-4-9.37-.22-.24-.11-.78-.19-1.48a9.75,9.75,0,0,1,5,6.14m-.62-10.9,4.73,4.59a4.17,4.17,0,0,0,1,.83c.83.44,1.71.81,2.58,1.21a9.88,9.88,0,0,0,.6-3,115.71,115.71,0,0,0-6.77-27.42c-.3-.77-.73-1.49-1.1-2.24l.41-.34a6.14,6.14,0,0,1,1.06,1.16c3.15,6,7.1,11.78,8.38,18.57.78,4.18,2.23,8.41,1.25,12.75-.34,1.53-1,3.87-1.94,4.17-1.24.38-3.46-.53-4.46-1.62a92.12,92.12,0,0,1-6.19-8.23l.49-.42m2.91-7.21c-.33-1.71-.75-3.42-1.12-5.12l.61-.2c.61,2.66,1.36,5.29,1.76,8,.12.79-.72,1.73-1.12,2.6-.77-.63-1.56-1.24-2.3-1.9-.18-.16-.18-.52-.34-1,2.57.92,2.87-.44,2.51-2.33m.67-45.37a13.88,13.88,0,0,1-2.45-4.21,4.44,4.44,0,0,1,.72.27c.69.45,1.35.94,2,1.41a7.78,7.78,0,0,0,.69-2.56c-.27-3.2-.68-6.39-1.19-9.56-.11-.73-1.09-1.32-1.51-2,.21-.15.72-.37.94-.51.62,1,1.62,1.88,1.79,2.92.72,4.43,1.25,8.9,1.71,13.37a1.65,1.65,0,0,1-.4,1,1.26,1.26,0,0,1-1.61.4,2.55,2.55,0,0,1-.71-.52m6.72,15.4-5.8-8.61a5.76,5.76,0,0,1,1.37.29c2,1,2.38.78,2.78-1.33,1.28-6.66.36-13.11-1.67-19.47a13,13,0,0,1-.25-1.66c5.72,9.68,4.44,19.85,3.54,30.68m5.51-20.6c-2.59-5.91-5.11-11.91-7.65-17.91a17,17,0,0,1-.73-2,1.72,1.72,0,0,0-.17-.48.52.52,0,0,1,.24-.64l.47-.28c.2.36.42.71.62,1.08,3,5.56,6.28,11,8.93,16.73,1.29,2.77,1.36,6.09,2.1,9.14a20,20,0,0,1-2.07,14.51,21.21,21.21,0,0,0-1.21,4.27c-.16.61-.3,1.22-.46,1.84l-.91-.11c.21-2.18,0-4.53.69-6.52,2.38-6.58,3-13,.15-19.63m-12.92-48c-1.79-.68-3.24-2.25-4.85-3.43l.37-.48,11,5.36c.07-1.64.51-3.46.14-5.1-1.38-6.13-3.1-12.17-4.54-18.28-1.27-5.41-4.69-9.69-7.21-14.46a70.36,70.36,0,0,1-3.35-8.31,2.93,2.93,0,0,1,.19-2.21,71.82,71.82,0,0,0,3.08,6.66c1.85,3.19,4,6.17,5.93,9.33,3.62,6.07,5.46,12.83,7.57,19.49,1.47,4.66,2.73,9.36,2.47,14.32a6.32,6.32,0,0,1-.43,2.28c-.79,1.83-2,2-3.21.4a16.54,16.54,0,0,0-7.19-5.52m-5.77-28c.28.1.46.1.51.18,3,5.32,6.76,10.33,6.6,16.85a11.37,11.37,0,0,1-.9,2.92l-2.79-1.59v-.59c2-.45,1.8-1.81,1.37-3.15q-2.24-6.9-4.55-13.78c-.08-.24-.16-.48-.27-.84M211.16,196.8a37.25,37.25,0,0,0-10.91-12.66,15.65,15.65,0,0,1-3.58-4.19c6.83,4.08,16.25,15.18,19.35,22.39a3.09,3.09,0,0,1,.12,1.13,63.62,63.62,0,0,1-4.95-6.7m-7.67-35.56a32.08,32.08,0,0,1,1.48,3c2.5,6.26,7.79,9.79,13,13.47,2.07,1.46,4,3.08,6,4.63l-.55.56c-7.11-5.78-16-9.71-19.59-19.14a4.39,4.39,0,0,1-.34-2.48m5.95,3.87a.08.08,0,0,0,.06.07,25.78,25.78,0,0,0,2.77,2.95l3.78,2.16c.37.22.64.67,1,.78,3.57,1,6.17,3.29,8.69,5.88,1.89,1.94,3.25,1.45,4.31-1l.53.2c-.64,1.75-1.3,3.51-2,5.41-2.89-2.58-5.23-4.93-7.84-6.94s-5.77-3.9-8.64-5.89l-.19-.15c-.39-.29-2.11-1.78-2.68-2.29l-.16-.13h0a1.63,1.63,0,0,1-.27-.31,8.52,8.52,0,0,1-1.43-3.7l2.07,3.06m7.18-4c.63-2.17,1-4.44,1.51-6.66a7,7,0,0,1,.72-1.42l.39.14c-.47,2.07-.82,4.18-1.46,6.19a4.1,4.1,0,0,0,1.15,4.82,46.53,46.53,0,0,0,4.23,3.58,5.06,5.06,0,0,0,3,.58c1.39.78.81,2.06-.1,2.73-.48.35-2-.15-2.63-.7-1.94-1.65-3.66-3.54-5.52-5.28a3.6,3.6,0,0,1-1.31-4m16.23,20.89c.07,2.2.77,4.5-1.06,6.41l-6.51-3.6.23-.3c1.65.55,3.55,1.86,4.87,1.42,1.13-.38,1.69-2.44,2.47-3.93m2.81,17c.4-.58,1.17-1.18,1.13-1.73-.19-2.49-.6-5-.93-7.44a5.81,5.81,0,0,1,.07-2.84c.15.54.33,1.07.45,1.62.8,3.4,1.63,6.79,2.35,10.2a10.8,10.8,0,0,1,.12,3.21c0,.65-.42,1.67-.82,1.76a2.4,2.4,0,0,1-2-.67,21.45,21.45,0,0,1-3.63-5.21c-1.88-4.8-5.31-8.18-9.27-11.15-4.15-3.1-8.38-6.08-12.56-9.14a10.29,10.29,0,0,1-.91-.84c.1-.14.19-.29.29-.44,2.13,1.45,4.31,2.81,6.35,4.37,5.08,3.89,10.19,7.75,15.05,11.89,1.4,1.19,2,3.35,3,5a7.73,7.73,0,0,0,1.35,1.39m17.06,38.69a6.19,6.19,0,0,0,.55.85c.28-5.88-1.89-11.17-3.6-16.58,3.8,4.49,6.58,18,4.18,20.53a12.11,12.11,0,0,1-1.38-2.08,27,27,0,0,0-12.65-13.85c-3.08-1.69-5.6-4.52-8-7.14A25,25,0,0,1,228,213a80.25,80.25,0,0,0,6.22,6.93c3.54,3.16,7.28,6.09,11.09,8.92a23.76,23.76,0,0,1,7.5,8.88m24.14-81.17c-2.64,3.51-4.2,7.16-2.67,11.61,1,2.82,1.71,5.72,2.57,8.58.36,1.19.75,2.36,1.26,4l1.84-2.23.47.28-2,3.71h-.88c-.42-1.56-.82-3.13-1.28-4.69-1.11-3.75-2.3-7.48-3.36-11.24-1-3.44.83-8,4-10m-70.11,70.31a2.64,2.64,0,0,1-2.58-.16c-3.76-3-7.75-5.91-10.95-9.48a48,48,0,0,0-16.36-12.14c-9.86-4.34-18.24-10.71-26.35-17.6-5-4.27-8-9.87-10.63-15.76-.84-1.89-1.51-3.88-2.25-5.82l.9-.4c1.21,2.41,2.64,4.72,3.6,7.23,3.05,8.07,8.36,14.15,15.26,19.26a128.65,128.65,0,0,0,19.94,11.56c4.2,2.09,8.6,4,12.34,6.72,3.15,2.29,5.55,5.63,8.13,8.64a14.2,14.2,0,0,0,6.21,4.49c-.59-3-1.08-5.5-1.59-8l.37-.19c.63,1.09,1.31,2.15,1.87,3.28a45.23,45.23,0,0,1,2.56,5.63,3.18,3.18,0,0,1-.47,2.74M157.9,182.46a50.58,50.58,0,0,0,20,13.46c1.19.43,2.27,1.15,3.44,1.66,2.2,1,4.43,1.89,6.64,2.83a4.54,4.54,0,0,1,1.37.6c3,2.91,6,5.86,9,8.8l-.78,1c-.65-.47-1.52-.82-1.92-1.46-2.73-4.31-7-5.87-11.62-7.3-2.92-.91-5.56-2.74-8.34-4.14a75.44,75.44,0,0,1-17.37-12.63c-2.4-2.25-3.73-5.64-5.51-8.54a8.67,8.67,0,0,1-1.14-2.82c2.06,2.86,3.85,6,6.22,8.53m2.76-3.24c2.43,2.12,4.71,4.44,7.32,6.3a50.13,50.13,0,0,0,6.58,3.34c2.21,1.11,4.27,2.29,6.45,3.29.92.44,2,.59,2.88,1.1a2.87,2.87,0,0,1,1.13,2.08c-7.11-2.88-14.39-5.17-20.13-10.35a52,52,0,0,1-4.66-5.49c.15-.09.3-.18.46-.26M530.9,305.56c-11.63-31.08-39.52-23.54-31.38-76.71,0,0,2.43-12.68,6.89-8s8.61,5.23,8.5,1.53.73-14.94-6.25-25.15a2,2,0,0,1-.35-1.23c.56-7.77,4-81-59.41-97.88a.85.85,0,0,0-1,.66.88.88,0,0,0,0,.28l2.88,17a2.3,2.3,0,0,0,.5.18c.47.18.94.38,1.4.58l2.18,1c.95.47,1.88,1,2.81,1.49l3.3,2c1.25.81,2.48,1.66,3.67,2.56s2.62,2,3.88,3.14,2.7,2.45,4,3.76a56.8,56.8,0,0,1,3.9,4.43,63.94,63.94,0,0,1,10,17.62,70.26,70.26,0,0,1,2.31,7.44,73.5,73.5,0,0,1,1.56,8.3,83,83,0,0,1,.69,9.17v3.13c.06,1.43.26,3.28-.55,4.53a2.67,2.67,0,0,1-2,1.16,8.76,8.76,0,0,1-4.59-1.1c-8.36-3.87-22-9.43-30.63-17.63s-10.67-14.68-28.45-14.2-12.81,5.08-22.11,9.9c0,0-5.69,3.55-11.92,7.34s-12.7,7.6-15.08,8.65a107.07,107.07,0,0,1-10.71,3.91c-3.81,1.34-9.61,4.91-12.85,9.38s-15.18,17.08-15.18,17.08-9.6,11.39-12.28,8.37S326.08,206,331,199.14s20.32-21.66,26.68-27.24,13.85-13.73,24.45-17.87c3.17-1.23,5.94-2.3,8.61-3.17a47.1,47.1,0,0,1,20.54-2.19c3.82.49,7.6,1.2,11.45,1.46,2.79.18,5.58.17,8.37.31a76.73,76.73,0,0,1,8.29.94c3.06.5,6.12,1,9.18,1.43,11.89,1.76,28.93,9.17,34.31,11.61a1.07,1.07,0,0,0,1.42-.53,1,1,0,0,0,.08-.58c-.39-3.06-1.45-9.29-4.19-14.09a9.45,9.45,0,0,0-5.06-4.16c-4.92-1.72-16.44-5.08-36.39-7.28-27.8-3.06-31.25-7.82-31.83-13.42l-.76-10.77a1.86,1.86,0,0,0-2-1.71h0l-13.53.44a7.82,7.82,0,0,0-7.17,5.47,20.65,20.65,0,0,1-4,7.2s-2,3.11-8.07,8.54-15.87,12.89-31.66,21.94c0,0-13.78,9.32-18,.83a87.88,87.88,0,0,1-9.28-22.77C309.6,122,309,108,316.79,96.08c13.73-21.34,29.61-29.87,53.39-37.19a4,4,0,0,0,2.7-5v0L370.76,47a4,4,0,0,0-4.41-2.81c-7.74,1.36-27.36,6.34-49,23.61A48,48,0,0,0,310,75.14c-2.47,3.08-6.77,7.24-10.4,4.58-5.47-4-8.33-8.78-9.47-9.11s-13,8.89-11.17,16.75S290.1,103.14,295.23,131c0,0,.29.94.75,2.51,1.88,6.33,6.77,22.89,8.15,28.38,1.7,6.84,2.95,29-9.24,41.27,0,0-17,10.49-8.78-13.79,0,0,6.5-15.39,7.3-16.65s6.95-12.62,6.95-12.62L294.1,140,281,153.73s-5.48,5.92-15.06.56c0,0-4.14-3.37-10.24-8.31-13-10.52-34.81-28.14-44.28-35.39C197.49,100,192.57,90.14,197.49,75c3.91-12.06,13.23-27.6,16.86-33.44a2.66,2.66,0,0,0-.86-3.67,2.69,2.69,0,0,0-.29-.16,22.1,22.1,0,0,0-11.8-2,4.08,4.08,0,0,0-2.67,1.45,54.18,54.18,0,0,0-3.45,5.18q-.94,1.47-1.83,3c-.7,1.18-1.38,2.37-2,3.58-.75,1.38-1.47,2.78-2.18,4.18-.85,1.6-1.6,3.2-2.27,4.82-.81,1.8-1.59,3.61-2.32,5.44-.81,2-1.59,4-2.31,6.1s-1.54,4.49-2.25,6.76c-.06.23-.15.45-.21.68,0,0-2.35,15-12.47,15.36,0,0-4.75-.21-6.25-.78s-4.32,2.91-2.82,10.52,3.38,6.29,4.41,6.38,7.51-.56,10.24.75c0,0,10.35,3.47,28.56,15.27s32.72,24,43.29,40.82c5.65,9,9,19.86,10.87,28a111.26,111.26,0,0,1,2.17,12.13s1.76,6.91-2.17,6.51a3.43,3.43,0,0,1-1-.21c-5.16-1.69-18.43-27-18.43-27s-6.86-11-2.25-21.47l1.15-2.51a2.13,2.13,0,0,0-.48-2.44l-10.16-9.43a2.09,2.09,0,0,0-2.95.08l-.17.19c-2.54,3.37-8.52,10-16.34,10.15a19.6,19.6,0,0,1-4.19-.26l-.26-.05a24.57,24.57,0,0,1-15-8.63c-8.21-9.84-9.63-12-10.4-13.34s-3-4.15-9.18-5.79-9-21.88-9-21.88-3.17-19.78-1.86-32.47c.65-6.29,1-10.25,1.19-12.64a2.78,2.78,0,0,0-2.54-3h-.46l-5.6.43a5.54,5.54,0,0,0-4.7,4.55c-1.53,9-4.81,31.41-3.11,49.91,0,0,2.95,8.63-3.82,10.39-4.1,1-11.62,1.28-16.94,1.3a4.1,4.1,0,0,0-4.08,4.11,4,4,0,0,0,.29,1.49l4.14,10.5a7.17,7.17,0,0,0,7.51,4.5A51.89,51.89,0,0,1,148.31,150c13.67,4.27,25.81,14.66,26.9,16.08s27,24,32.48,33.13,12.14,18.59,4.05,15.53-16.07-12.36-22.64-18.48-33.24-24.6-39.91-28-22.86-9-27.88-12.47-12.36-13.89-11.49-29c0-1,.59-6,1-9.22a2,2,0,0,0-1.76-2.21,2.41,2.41,0,0,0-.6,0L100.1,117a6.21,6.21,0,0,0-4.76,5.77c-.25,6-.32,16.6,1.6,25.23,2.85,12.8-4.26,19-6.56,21s-11.72,11.75-34.8,17.11c0,0-6.25,1.32-9.18-1.46s-2.18-5.87-5.57-3.61c-3.86,2.73-13.61,22.63-13,41.59,0,0,.08,5.11,5.64,1.43s6.85-5.11,7.9-3.84c0,0,9.76,10.49,3.24,40.28,0,0-4.68,16.16-14.32,21.83S6.74,308.74,11,331.43c3.85,20.54,8.52,29.7,13.68,35.13a1.35,1.35,0,0,0,1.91.06A1.28,1.28,0,0,0,27,366l4.14-13.77a5.4,5.4,0,0,0-1-4.92c-3.35-4.12-9.58-14.88-4.65-34,9.5-23.12,32.26-20.67,35-64,0,0-1.45-22.18-3.78-30.34s-1.43-14.84,4-16.84S79.3,196,90.24,189.58s17.35-9.63,35-4.68,26.82,9,48.7,29.31,26.38,28.58,27.26,30.19,2.77,9,5.24,12.39,18.67,24,19.25,25.51,5.83,6.27,2,16.33-8.45,13.71-5.54,23.76,8.94,13.34,5.13,24.63-5.3,8.58-6.14,14.74c-1.48,10.73,1.89,8.94,1.74,13.42-.14,4.67-7.58,20.27-8.6,21.42s-5.39,4.09-9.34,6c0,0-5,1-10.88,10.58s-30.43,19.51-48.37,17-25-2.15-31.41-8.4-9-9.75-18.33-12.29-31.77-10.42-41.95-21c-9.48-9.85-8.39-24.14-5.5-32A3,3,0,0,0,48,353.6l-7-8.79a1.92,1.92,0,0,0-2.68-.31,2,2,0,0,0-.59.78,83.64,83.64,0,0,0-4.38,13.81s-5.07,19.51,7.22,47.4c11.8,26.82,33.17,50.92,68.24,64.53a16.58,16.58,0,0,1,6.94,5c6.71,8.37,25.72,29.51,50.44,34.79,0,0,8,1.18,10.73,3.71s29.25,21.66,73.54,26.14c43.49,4.41,82.84-7,99.38-15a11.35,11.35,0,0,0,1.67-1c3.54-2.4,18.05-12.1,23.46-13.33,6.1-1.38,24.25-1.4,53.65-36.31a5.32,5.32,0,0,1,2.62-1.71c8.49-2.4,49.92-16.2,61.89-59.16.17-.59.29-1.19.4-1.78a28.62,28.62,0,0,1,5.22-11.23c4.61-6.23,21.76-27.36,9.33-55.06a3,3,0,0,0-4-1.52,4.67,4.67,0,0,0-.49.27A23.32,23.32,0,0,0,496,354a2.72,2.72,0,0,0,.11,2.5A22,22,0,0,1,499,368.63a22.6,22.6,0,0,1-3.9,11.14c-8.7,13.19-15.44,18-24.14,20.77,0,0-13.64,6-19.37,6.68-10.19,1.34-16.92,8.92-24,16.25s-51.1,10.83-69.63-2.9c0,0-8.84-6.25-9.52-8.77-.57-2.07-5.14-7.22-10.69-9.89a21.74,21.74,0,0,1-8-6.39c-2.81-3.73-6.26-9.1-7.76-14.64a19.4,19.4,0,0,1-.32-8.41,51,51,0,0,0,.11-15.2v-.19a7.42,7.42,0,0,0-.13-1,34.27,34.27,0,0,0-1.71-3.82c-2.27-4.36-4.11-8.94-6.11-13.44a46.42,46.42,0,0,0-2.32-5.5c-3.62-6-7.41-11.81-10.48-18.09a25,25,0,0,0-5.46-7.72,11.28,11.28,0,0,1-4-7.29c-.11-.78-.29-1.55-.46-2.31-1.09-5.19-1.64-10.35.26-15.48.71-1.93,2-4.06,1.68-5.87a70.83,70.83,0,0,0-3.61-13c-1.7-4.42-4.27-8.51-6-12.92a63.47,63.47,0,0,1-4.17-23.5,20.61,20.61,0,0,1,.45-5.75c1.63-5.09,3.58-10.07,5.43-15.15a9.22,9.22,0,0,1,0,1.82c-.73,3.93-1.64,7.84-2.23,11.79a20.87,20.87,0,0,0-.18,7.05,102.72,102.72,0,0,0,11.69,30.46,38.27,38.27,0,0,0,4.95,6.9c.77.82,2.59,1.05,3.87.92,1.57-.17,1.48-1.82,1.33-3-.47-3.38-1.19-6.73-1.65-10.11-.41-3-1.75-6.08.18-9,2.15-3.26,2.68-6.92,2.68-10.68,0-6.25.1-12.51-.31-18.74-.7-10.3,2.4-19.1,9.89-26.11,9-8.48,20.34-13.14,31.83-17,7.08-2.41,12.62-6.73,18.12-11.37a23.32,23.32,0,0,0,2-2.21l1.82-2c-2.94,6.63-8.38,10.75-14.33,14.14-2.87,1.64-6.29,2.27-9.4,3.55-4.08,1.67-8.11,3.49-12.12,5.34a54.78,54.78,0,0,0-7,3.56c-5.64,3.67-9.71,9-14.1,14a17.86,17.86,0,0,0-3.69,5.37c-1.83,5.16-1.8,10.61-1,16a75.87,75.87,0,0,1-1.6,30.92,14.09,14.09,0,0,0-.49,4.47c.36,4.63.92,9.26,1.39,13.88a3.27,3.27,0,0,1,0,1.7c-.47.87-1.05,1.95-1.85,2.28a3,3,0,0,1-2.61-.71,63.38,63.38,0,0,1-15-21.83q-1.74-4.35-3.44-8.78a10.93,10.93,0,0,1-.36-1.42l-.8.7a6.91,6.91,0,0,0,0,1.7c1.45,4.78,2.74,9.62,4.49,14.29,1.39,3.71,3.41,7.18,5,10.82,1,2.35,1.6,4.91,2.78,7.17,2.44,4.68,5.08,9.25,7.76,13.79a49.17,49.17,0,0,0,4.6,6.65,3.78,3.78,0,0,0,3.12.67c.53-.1,1-1.42,1.19-2.25.33-1.91.46-3.85.62-5.77.39-4.71,1-9.41,1.08-14.13.13-5.62,1.41-11.25-.29-16.91a7.37,7.37,0,0,1,.85-6.73c-.9,4.36.75,8.19,2.08,12.13a8.09,8.09,0,0,1,.07,3.63c-.53,3.3-1.73,6.58-1.74,9.87,0,4.38.19,8.76.43,13.14a20.92,20.92,0,0,1,2,14.27c-.26,1.32-.65,2.62-1,3.93-.38,1.64-1.21,2-2.31.82s-2.11-2.62-3.15-4c4.32,2.52,4.4,2.49,5-2.44.44-3.56.94-7.14-.45-10.61.12,2.26.24,4.5.33,6.74a9.63,9.63,0,0,1-.22,3.17c-.6,1.92-2.35,2.38-3.87,1.05A24.69,24.69,0,0,1,308,296c-3.44-4.2-8.3-7.33-9.85-13a2.31,2.31,0,0,0-.56-.9c-1.52-1.58-2.82-1.43-3.94.49a9.94,9.94,0,0,0-.83,2,23.17,23.17,0,0,0-.18,13.15,9.79,9.79,0,0,0,3.52,5.41c4.5,3.72,7.42,8.58,9.65,13.92,1.71,4.14,3.42,8.28,5.35,12.33.45.95,1.76,2.1,2.63,2.07S315.65,330,316,329c1.63-4.27,3-8.65,4.62-12.9l.27-1.3s3.81-6.77-.35-18c-3.18-8.61-4.54-16,.11-25.68a55.57,55.57,0,0,1,6.13-9.69,61.74,61.74,0,0,0,10.72-12.58c.45-.77.87-1.54,1.25-2.33a31.42,31.42,0,0,1,2.44-4c6.38-9.21,20.61-24.6,20.61-24.6s24.28-27.73,47.17-36.06a65.7,65.7,0,0,1,13.2-3.7,25,25,0,0,1,8.37,0,16.34,16.34,0,0,1,4.7,1.75c1.52.86,3,1.83,4.51,2.68,1.69.93,3.46,1.69,5.17,2.59s3.54,1.93,5.3,2.91c3.71,2.05,7.39,4.15,11,6.33s7.33,4.49,10.86,6.92a76.33,76.33,0,0,1,6.37,4.8c9.89,8.5,8.16,11.27,7.46,22s-6.07,30.69,7.11,51.49,24.44,22.54,27.22,37.81S518.47,344,513,350.14l.24.71,5.28,16.57s24.22-28.42,12.31-61.84M510.12,164.66l1.38,23.48a8.79,8.79,0,0,0,1,3.62c3.38,6.4,14.23,32.12-6,68.66a5.53,5.53,0,0,0,.49,6.14l6.13,7.74a1.56,1.56,0,0,0,2.58-.15c2.47-4,8.43-15.5,16-41.69,7.12-31.67-11.61-63.42-19.85-68.79a1.15,1.15,0,0,0-1.73,1m22.3,72-5.21,16.53a7.62,7.62,0,0,0-.07,4.36c1.14,4.06,2.46,14.66-2.87,27.18a4.59,4.59,0,0,0,.41,4.38L531,299.53a1.77,1.77,0,0,0,2.43.61,1.81,1.81,0,0,0,.63-.66c4.52-8.07,16.6-34.19,2.94-63.09a2.47,2.47,0,0,0-3.29-1.18,2.52,2.52,0,0,0-1.3,1.49m-36.89,54.72,7.28,6.82a2,2,0,0,1,.5,2.19,34.62,34.62,0,0,0-2.49,14,1.81,1.81,0,0,1-.48,1.37L488.7,328.14a1.2,1.2,0,0,1-2.05-.54,49.26,49.26,0,0,1,5.44-35.66,2.23,2.23,0,0,1,3-.79,2.82,2.82,0,0,1,.39.29m20,21.7L517.66,327a3,3,0,0,1-1.18,2.85c-5,3.67-21.44,16.14-23.66,24.3-2,7.31-.6,16.57.2,20.64a3.94,3.94,0,0,1-1.13,3.61l-9.74,9.43a1.66,1.66,0,0,1-2.36,0,1.7,1.7,0,0,1-.43-.79c-2-8.48-6.34-34.35,8.52-51.84,12.68-14.92,21-21,24.81-23.32a1.87,1.87,0,0,1,2.57.65,2.07,2.07,0,0,1,.24.67m-328.11-264-5.48,12a1.53,1.53,0,0,1-1.82.85c-6.56-1.8-35.65-7.77-45,2.25a46.31,46.31,0,0,0-17.8,21.9,4,4,0,0,1-2.71,2.4l-11.39,3a2.39,2.39,0,0,1-2.92-1.72,2.48,2.48,0,0,1,0-1.21c2-7.79,6.45-19.78,16.82-29.56,17.3-16.29,44-20.67,69.4-12a1.56,1.56,0,0,1,1,2l-.06.13M136,94.47l-.63,14.44A2.3,2.3,0,0,1,133,111.1h0c-8.54-.43-39.22-.68-60.91,15.5a28.84,28.84,0,0,0-8.35,9.88l-1,1.85a5.22,5.22,0,0,1-2.56,2.41l-19.36,8.7a.85.85,0,0,1-1.13-.41.87.87,0,0,1-.07-.48,55.67,55.67,0,0,1,28-40.26C93.44,93.86,110.13,94,134.3,92.82a1.59,1.59,0,0,1,1.7,1.46v.19M89.94,135.52l2.49,14.62a2.07,2.07,0,0,1-1.56,2.36c-9.27,2.17-49.95,12.84-59.14,34.23-10.39,24.19-7.3,53.9,3.57,73.21l1.39,2.65a2.29,2.29,0,0,1,.19,1.66,17.71,17.71,0,0,1-7.13,10.21,2.32,2.32,0,0,1-3.23-.58l-.08-.13c-4.92-8.09-10.61-21.94-14.68-39.62C5.27,205.9,12.83,174.08,35,158c18.66-13.55,44.64-21.87,52.33-24.12a2.07,2.07,0,0,1,2.56,1.4c0,.08,0,.16,0,.23M10.28,237.94l6.53,17.89a3.39,3.39,0,0,1-.13,2.65c-1.47,3-4.34,11.77,1.95,27.42a5,5,0,0,1-.16,4.16l-6,11.95a1.18,1.18,0,0,1-1.57.54,1.3,1.3,0,0,1-.49-.47C6.1,294.62-8.7,265.42,7.17,237.69a1.73,1.73,0,0,1,2.35-.64,1.7,1.7,0,0,1,.76.89m31.85,59.92L48.25,292a3.44,3.44,0,0,1,4.84.1,3.7,3.7,0,0,1,.62.9c3.07,6.47,7.92,19.78,4.51,34.27a1.57,1.57,0,0,1-1.92,1.15,1.51,1.51,0,0,1-.68-.37L44.09,317.31A3.43,3.43,0,0,1,43,314.36c.27-2,.28-6.06-1.79-13a3.45,3.45,0,0,1,.89-3.46m-9.19,14.39a2.73,2.73,0,0,0-3.83.38,3,3,0,0,0-.38.62,27.83,27.83,0,0,0-1.6,4.85,27.37,27.37,0,0,0-.51,9.37,4.46,4.46,0,0,0,2.17,3.32,81.82,81.82,0,0,1,10.41,7.6c6.2,5.16,12.57,12,13.26,18.89,0,0,.37,10.61-.89,17.51a4.88,4.88,0,0,0,1,4l6.57,7.93a3.59,3.59,0,0,0,6.33-1.65c1.39-7.71,3-19.87,1.46-28.85,0,0,.51-15.41-34-43.94M218.66,163.77c.64,1.42,5.37,6.39,6.71,6.63s1.66-2.13,2.61-.87-.23,3.16-.65,3.37a3.75,3.75,0,0,1-3-.69s-7.4-5.74-7.18-9.08,2.87-9.94,2.87-9.94Zm-2.4,39.94a.35.35,0,0,1-.11-.1h0l.06.14m50.66-32.44c-.08.32-.18.63-.27,1v-.93h.27M216.2,203.57h0v-.11s0,0,.06.07M233,181.74c-.05.08-.09.18-.14.27v-.34h0l.16.1m129.36,8.9-.14.06.1-.11ZM200.89,159a3.51,3.51,0,0,1,.12-.71,2.57,2.57,0,0,0-.38.66Z"/></g></g></svg>