<svg id="Capa_1" enable-background="new 0 0 512 512" height="512" viewBox="0 0 512 512" width="512" xmlns="http://www.w3.org/2000/svg"><g id="Deployment"><g><path d="m178.697 290.677c29.812-65.824 99.531-206.606 311.095-226.042 1.277-13.881 2.034-28.369 2.209-43.501 0-.566 0-.566 0-1.132-.566 0-.566 0-1.131.002-245.751 2.839-322.832 158.103-354.6 228.246-6.941 15.326-3.895 33.25 8.002 45.147l42.426 42.426c-11.897-11.896-14.942-29.82-8.001-45.146z" fill="#cee1f2"/></g><g><path d="m5.858 506.143c-4.646-4.646-6.713-11.277-5.531-17.74.136-.739 3.368-18.312 8.629-38.107 10.414-39.19 19.362-51.465 25.188-57.29 23.393-23.393 61.456-23.395 84.853 0 23.449 23.45 23.449 61.403 0 84.853-5.824 5.824-18.101 14.772-57.29 25.187-19.795 5.26-37.368 8.494-38.106 8.629-6.328 1.156-12.999-.789-17.743-5.532zm56.569-84.853c-5.994 6.323-14.014 35.985-16.148 44.432 8.567-2.164 37.991-10.122 44.443-16.159 7.806-7.818 7.801-20.462-.011-28.273-7.798-7.798-20.487-7.799-28.284 0zm42.426 42.426h.01z" fill="#ff5cf4"/></g><g fill="#0023c4"><path d="m365.852 232.134c23.449-23.45 23.449-61.403 0-84.852-23.448-23.45-61.404-23.45-84.853-.001-23.45 23.449-23.45 61.404 0 84.853 23.449 23.45 61.404 23.449 84.853 0zm-56.568-56.568c7.817-7.817 20.467-7.816 28.284 0 7.816 7.816 7.816 20.469-.001 28.284-7.816 7.816-20.467 7.816-28.283 0-7.818-7.816-7.818-20.469 0-28.284z"/><path d="m492 0s-1.306.002-1.362.003c-110.838 1.282-201.88 32.886-270.595 93.933-26.324 23.387-46.571 48.333-62.835 73.153-9.438-5.916-20.358-9.097-31.772-9.097-16.027 0-31.095 6.241-42.426 17.573l-56.569 56.568c-7.811 7.811-7.811 20.474-.001 28.284 7.812 7.811 20.476 7.811 28.284 0l56.57-56.569c3.777-3.777 8.799-5.857 14.142-5.857 4.139 0 8.079 1.262 11.404 3.582-7.031 13.163-13.189 26.062-18.788 38.424-10.502 23.189-5.762 49.7 12.078 67.541l74.189 74.189c17.518 17.518 44.351 22.598 66.801 12.415 10.051-4.559 23.724-10.768 39.433-19.188 2.969 3.578 4.588 8.035 4.588 12.742 0 5.342-2.08 10.365-5.858 14.142l-56.568 56.569c-7.81 7.811-7.81 20.474 0 28.284s20.475 7.81 28.285 0l56.567-56.568c11.333-11.333 17.574-26.4 17.574-42.427 0-12.024-3.513-23.508-10.053-33.279 23.603-15.574 48.938-35.768 72.362-61.971 61.452-68.743 93.264-159.948 94.55-271.083 0-.076 0-1.363 0-1.363 0-11.045-8.954-20-20-20zm-174.822 324.881-36.178-36.178c-7.811-7.811-20.473-7.81-28.285 0-7.81 7.81-7.81 20.474 0 28.284l28.277 28.276c-10.011 5.021-18.979 9.09-26.393 12.452-7.294 3.308-16.131 1.591-21.993-4.271h-.001l-74.189-74.189c-5.95-5.95-7.49-14.881-3.925-22.754 3.274-7.23 7.222-15.944 12.075-25.664l29.581 29.581c3.905 3.905 9.024 5.858 14.143 5.858s10.237-1.953 14.143-5.858c7.81-7.81 7.81-20.474 0-28.284l-37.529-37.529c41.326-65.296 121.276-146.169 284.512-154.021-7.872 162.639-88.746 242.74-154.238 284.297z"/></g></g></svg>