<svg id="Capa_1" enable-background="new 0 0 512.007 512.007" height="512" viewBox="0 0 512.007 512.007" width="512" xmlns="http://www.w3.org/2000/svg"><g id="Idea"><g><path d="m236.003 372.003v-31.633c0-12.609-5.165-25.121-15.287-32.64-39.133-29.073-64.713-75.218-64.713-127.727 0-78.111 55.976-143.136 130-157.18-9.719-1.844-19.745-2.82-30-2.82-88.367 0-160 71.633-160 160 0 52.509 25.581 98.654 64.713 127.727 10.122 7.52 15.287 20.031 15.287 32.64v31.633c0 22.091 17.909 40 40 40h60c-22.091 0-40-17.908-40-40z" fill="#cee1f2"/></g><g><path d="m296.003 432.003h-80c-33.084 0-60-26.916-60-60v-31.633c0-6.925-2.764-13.28-7.214-16.586-22.051-16.382-40.327-37.791-52.854-61.912-13.226-25.469-19.933-53.014-19.933-81.869 0-99.252 80.748-180 180-180s180 80.748 180 180c0 28.855-6.706 56.4-19.933 81.869-12.526 24.121-30.803 45.529-52.854 61.912-4.45 3.306-7.214 9.661-7.214 16.586v31.633c.002 33.084-26.914 60-59.998 60zm-40-392c-77.196 0-140 62.804-140 140 0 44.227 20.645 84.93 56.641 111.672 14.627 10.866 23.359 29.07 23.359 48.694v31.633c0 11.028 8.972 20 20 20h80c11.028 0 20-8.972 20-20v-31.632c0-19.624 8.732-37.828 23.358-48.694 35.997-26.743 56.642-67.446 56.642-111.672 0-77.197-62.803-140.001-140-140.001z" fill="#0023c4"/></g><g><path d="m296.003 512.003h-80c-11.046 0-20-8.954-20-20s8.954-20 20-20h80c11.046 0 20 8.954 20 20s-8.954 20-20 20z" fill="#ff5cf4"/></g><g><path d="m440.042 70.003c-5.523-9.566-2.245-21.797 7.32-27.32l34.641-20c9.565-5.524 21.798-2.246 27.32 7.32 5.523 9.566 2.245 21.797-7.32 27.32l-34.641 20c-9.565 5.524-21.797 2.247-27.32-7.32z" fill="#0023c4"/></g><g><path d="m482.003 337.324-34.641-20c-9.565-5.523-12.844-17.754-7.32-27.32 5.523-9.565 17.757-12.843 27.32-7.32l34.641 20c9.565 5.523 12.844 17.754 7.32 27.32-5.522 9.566-17.754 12.844-27.32 7.32z" fill="#0023c4"/></g><g><g><path d="m2.683 330.003c-5.523-9.566-2.246-21.798 7.32-27.32l34.641-20c9.565-5.523 21.797-2.246 27.32 7.32s2.246 21.798-7.32 27.32l-34.641 20c-9.566 5.524-21.797 2.247-27.32-7.32z" fill="#0023c4"/></g><g><path d="m44.644 77.324-34.641-20c-9.566-5.522-12.843-17.754-7.32-27.32 5.522-9.566 17.754-12.844 27.32-7.32l34.641 20c9.566 5.522 12.843 17.754 7.32 27.32s-17.753 12.844-27.32 7.32z" fill="#0023c4"/></g></g><g><circle cx="176.003" cy="180.003" fill="#ff5cf4" r="20"/></g><g><circle cx="256.003" cy="180.003" fill="#ff5cf4" r="20"/></g><g><circle cx="336.003" cy="180.003" fill="#ff5cf4" r="20"/></g></g></svg>